<svg xmlns="http://www.w3.org/2000/svg" version="1.1" xmlns:xlink="http://www.w3.org/1999/xlink" xmlns:svgjs="http://svgjs.com/svgjs" width="512" height="512" x="0" y="0" viewBox="0 0 512 512" style="enable-background:new 0 0 512 512" xml:space="preserve" class=""><g><path fill="#a53860" fill-rule="evenodd" d="M126.159.003h259.682c67.096 0 121.947 54.85 121.947 121.946V390.05c0 67.068-54.851 121.947-121.947 121.947H126.159c-67.068 0-121.947-54.879-121.947-121.947V121.949C4.213 54.853 59.091.003 126.159.003z" clip-rule="evenodd" data-original="#f34235" class="" opacity="1"></path><path fill="#ffffff" d="M386.266 405.878c2.495 0 4.507 2.013 4.507 4.507s-2.013 4.507-4.507 4.507H125.734c-2.466 0-4.507-2.012-4.507-4.507s2.041-4.507 4.507-4.507zM232.713 128.536c27.893 16.129 55.814 32.23 83.735 48.331l3.997-6.917c.142-.199.283-.425.397-.652 6.491-11.452 7.767-24.52 4.592-36.368-3.175-11.821-10.771-22.451-22.082-29.14-.227-.142-.454-.284-.709-.397-11.452-6.52-24.491-7.795-36.368-4.621-11.849 3.175-22.507 10.829-29.197 22.195-.114.17-.227.369-.312.567zm-82.97 143.717c27.893 16.129 55.814 32.23 83.707 48.359l78.491-135.978c-27.893-16.101-55.814-32.201-83.707-48.331L167.63 241.27zm-1.757 107.773 79.512-52.526a115424.25 115424.25 0 0 1-80.759-46.63l-5.726 95.131c-.057.936.198 1.899.737 2.75 1.389 2.069 4.166 2.636 6.236 1.275z" data-original="#ffffff" class=""></path></g></svg>