<svg xmlns="http://www.w3.org/2000/svg" version="1.1" xmlns:xlink="http://www.w3.org/1999/xlink" xmlns:svgjs="http://svgjs.com/svgjs" width="512" height="512" x="0" y="0" viewBox="0 0 64 64" style="enable-background:new 0 0 512 512" xml:space="preserve" class=""><g><path d="M60 26h-3v-4a10.011 10.011 0 0 0-10-10H37a10.011 10.011 0 0 0-10 10h-6V12a5.006 5.006 0 0 0-5-5h-1V4a3 3 0 0 0-3-3H4a3 3 0 0 0-3 3v56a3 3 0 0 0 3 3h8a3 3 0 0 0 3-3v-3h1a5.006 5.006 0 0 0 5-5V42h6a10.011 10.011 0 0 0 10 10h10a10.011 10.011 0 0 0 10-10v-4h3a3 3 0 0 0 3-3v-6a3 3 0 0 0-3-3zM13 60a1 1 0 0 1-1 1H4a1 1 0 0 1-1-1V4a1 1 0 0 1 1-1h8a1 1 0 0 1 1 1zm6-8a3 3 0 0 1-3 3h-1V9h1a3 3 0 0 1 3 3zm27-2h-4V14h4zM21 40V24h6v16zm8 2V22a8.009 8.009 0 0 1 8-8h3v36h-3a8.009 8.009 0 0 1-8-8zm26 0a8.008 8.008 0 0 1-7 7.931V14.069A8.008 8.008 0 0 1 55 22zm6-7a1 1 0 0 1-1 1h-3v-8h3a1 1 0 0 1 1 1z" fill="#000000" data-original="#000000"></path></g></svg>