<svg xmlns="http://www.w3.org/2000/svg" version="1.1" xmlns:xlink="http://www.w3.org/1999/xlink" xmlns:svgjs="http://svgjs.com/svgjs" width="512" height="512" x="0" y="0" viewBox="0 0 512 512" style="enable-background:new 0 0 512 512" xml:space="preserve" class=""><g><path d="M480.451 40.081H31.549C14.152 40.081 0 54.233 0 71.629v304.613c0 17.396 14.152 31.548 31.549 31.548h151.826l-6.141 49.129H151.79a7.5 7.5 0 0 0-7.5 7.5 7.5 7.5 0 0 0 7.5 7.5h208.42a7.5 7.5 0 0 0 7.5-7.5 7.5 7.5 0 0 0-7.5-7.5h-25.443l-6.142-49.129h151.826c17.396 0 31.549-14.152 31.549-31.548V71.629c0-17.396-14.152-31.548-31.549-31.548zm-288.1 416.838 6.142-49.129h27.603l2.708 10.83a27.993 27.993 0 0 0 27.197 21.234 27.993 27.993 0 0 0 27.197-21.234l2.708-10.83h27.603l6.14 49.129H192.351zm49.206-49.129h28.885l-1.798 7.192c-1.453 5.813-6.652 9.872-12.645 9.872s-11.191-4.06-12.645-9.872l-1.797-7.192zM497 376.242c0 9.125-7.424 16.548-16.549 16.548H31.549c-9.125 0-16.549-7.423-16.549-16.548V71.629c0-9.125 7.424-16.548 16.549-16.548h448.902c9.125 0 16.549 7.423 16.549 16.548v304.613z" fill="#000000" data-original="#000000"></path><path d="M424.338 72.146H39.564a7.499 7.499 0 0 0-7.5 7.5v288.58c0 4.143 3.357 7.5 7.5 7.5h16.033c4.143 0 7.5-3.357 7.5-7.5a7.499 7.499 0 0 0-7.499-7.5h-8.533V87.146h377.273a7.5 7.5 0 0 0 7.5-7.5c0-4.143-3.357-7.5-7.5-7.5zM472.436 72.146h-16.033a7.499 7.499 0 0 0-7.5 7.5 7.5 7.5 0 0 0 7.5 7.5h8.533v273.58H87.662a7.5 7.5 0 0 0-7.5 7.5c0 4.143 3.357 7.5 7.5 7.5h384.773c4.143 0 7.5-3.357 7.5-7.5V79.646a7.498 7.498 0 0 0-7.499-7.5z" fill="#000000" data-original="#000000"></path><path d="M358.1 155.184a7.497 7.497 0 0 0-5.565-2.87l-176.354-8.017a7.062 7.062 0 0 0-.412-.007 15.54 15.54 0 0 0-6.236-8.391l-21.597-14.398a7.5 7.5 0 0 0-8.32 12.481l21.596 14.396a.522.522 0 0 1 .211.289l27.509 96.281c.858 3.002 2.27 5.7 4.083 8.03l-10.065 20.13c-2.423 4.845-2.169 10.488.679 15.096a15.577 15.577 0 0 0 3.848 4.234 23.38 23.38 0 0 0-3.103 11.657c0 12.976 10.557 23.532 23.532 23.532s23.532-10.557 23.532-23.532c0-3.009-.574-5.885-1.608-8.532h68.377a23.396 23.396 0 0 0-1.608 8.532c0 12.976 10.557 23.532 23.532 23.532s23.532-10.557 23.532-23.532c0-3.764-.893-7.321-2.471-10.479a7.472 7.472 0 0 0 2.471-5.553 7.5 7.5 0 0 0-7.5-7.5H196.825c-.107 0-.288 0-.439-.245-.151-.244-.07-.405-.022-.502l9.272-18.543a23.54 23.54 0 0 0 8.67.582l105.386-12.398a31.472 31.472 0 0 0 27.25-25.146l12.606-63.034a7.5 7.5 0 0 0-1.448-6.093zm-37.971 140.381c4.705 0 8.532 3.828 8.532 8.532 0 4.705-3.827 8.532-8.532 8.532s-8.532-3.827-8.532-8.532 3.827-8.532 8.532-8.532zm-112.225 0c4.705 0 8.532 3.827 8.532 8.532s-3.827 8.532-8.532 8.532-8.532-3.827-8.532-8.532 3.827-8.532 8.532-8.532zm-18.392-103.178-9.399-32.895 29.985 1.363 5.199 31.532h-25.785zm23.042 54.571a8.495 8.495 0 0 1-9.201-6.13l-9.555-33.441h23.972l6.301 38.216-11.517 1.355zm43.963-5.172-17.532 2.063-6.011-36.461h23.543v34.398zm0-49.399H230.5l-5.084-30.835 31.101 1.414v29.421zm37.982 44.93-22.982 2.704v-32.634h25.691l-2.709 29.93zm4.067-44.93h-27.049v-28.74l29.529 1.342-2.48 27.398zm33.666 28.984a16.509 16.509 0 0 1-14.293 13.189l-8.217.967 2.547-28.139h22.759l-2.796 13.983zm5.797-28.984h-24.401l2.418-26.716 27.08 1.231-5.097 25.485z" fill="#000000" data-original="#000000"></path></g></svg>