<svg xmlns="http://www.w3.org/2000/svg" xmlns:xlink="http://www.w3.org/1999/xlink" version="1.1" width="1224.55pt" height="408.17994pt" viewBox="0 0 1224.55 408.17994">
<defs>
<clipPath id="clip_0">
<path transform="matrix(1,0,0,-1,-302.85,1690.57)" d="M0 2000H2000V0H0Z"/>
</clipPath>
</defs>
<g id="layer_1" data-name="">
<g clip-path="url(#clip_0)">
<path transform="matrix(1,0,0,-1,443.08653,189.32923)" d="M0 0C-.625 .304-1.246 .609-1.864 .914-5.984 2.821-11.525-.234-14.744-5.237-39.517-44.072-86.395-56.736-125.594-43.239L-96.649 32.303C-96.493 32.299-96.339 32.291-96.182 32.291-81.726 32.291-70.011 44.008-70.011 58.463-70.011 69.397-76.715 78.759-86.236 82.673V100.55H-83.929C-80.762 100.55-78.169 103.142-78.169 106.31V109.325C-78.169 112.493-80.762 115.085-83.929 115.085H-108.431C-111.602 115.085-114.191 112.493-114.191 109.325V106.31C-114.191 103.142-111.602 100.55-108.431 100.55H-106.126V82.673C-115.647 78.759-122.353 69.397-122.353 58.463-122.353 52.475-120.338 46.959-116.953 42.549L-146.014-33.297C-156.731-26.337-166.25-16.986-173.746-5.237-176.962-.235-182.505 2.821-186.622 .914-187.244 .609-187.868 .304-188.489 0-192.595-1.891-193.282-9.133-189.326-15.312-179.584-30.584-166.979-42.463-152.785-50.969L-165.583-84.37-177.392-146.813-144.453-92.467-132.238-60.582C-85.259-77.005-28.898-61.922 .836-15.312 4.793-9.133 4.105-1.891 0 0" fill="#a53860"/>
<path transform="matrix(1,0,0,-1,350.05229,160.71106)" d="M0 0 25.933-69.155C33.224-66.907 40.156-63.769 46.593-59.805L20.086 10.878C15.204 4.907 8.075 .847 0 0" fill="#252525"/>
<path transform="matrix(1,0,0,-1,406.0045,245.47132)" d="M0 0C-6.591-3.664-13.547-6.696-20.782-9.028L-11.433-33.953 21.118-88.533 9.754-26.008Z" fill="#252525"/>
<path transform="matrix(1,0,0,-1,218.52109,234.22473)" d="M0 0C0-5.018-1.237-10.448-3.71-16.29-6.183-22.133-10.072-27.867-15.376-33.494-20.682-39.122-27.456-43.692-35.698-47.203-43.942-50.714-53.547-52.472-64.515-52.472-72.831-52.472-80.393-51.682-87.202-50.106-94.013-48.53-100.196-46.074-105.75-42.741-111.306-39.408-116.414-35.018-121.073-29.569-125.231-24.623-128.779-19.085-131.717-12.957-134.658-6.828-136.862-.287-138.33 6.667-139.8 13.619-140.535 21.002-140.535 28.816-140.535 41.504-138.69 52.865-134.997 62.902-131.306 72.937-126.019 81.521-119.137 88.654-112.255 95.786-104.191 101.216-94.944 104.944-85.697 108.67-75.842 110.535-65.375 110.535-52.617 110.535-41.254 107.99-31.29 102.901-21.327 97.81-13.693 91.52-8.387 84.03-3.083 76.539-.43 69.461-.43 62.794-.43 59.139-1.721 55.913-4.301 53.117-6.882 50.321-10 48.924-13.656 48.924-17.742 48.924-20.806 49.892-22.849 51.827-24.892 53.762-27.168 57.096-29.677 61.827-33.835 69.639-38.728 75.482-44.354 79.353-49.982 83.224-56.917 85.159-65.16 85.159-78.278 85.159-88.726 80.176-96.503 70.213-104.282 60.249-108.169 46.091-108.169 27.741-108.169 15.483-106.449 5.286-103.008-2.849-99.568-10.986-94.694-17.061-88.385-21.075-82.078-25.09-74.694-27.096-66.235-27.096-57.06-27.096-49.3-24.821-42.956-20.268-36.612-15.717-31.827-9.032-28.602-.215-27.241 3.941-25.556 7.329-23.548 9.946-21.542 12.562-18.316 13.871-13.871 13.871-10.072 13.871-6.811 12.543-4.086 9.892-1.363 7.239 0 3.941 0 0" fill="#a53860"/>
<path transform="matrix(1,0,0,-1,516.9498,143.04407)" d="M0 0V-114.729H64.729C69.891-114.729 73.851-115.983 76.611-118.492 79.37-121.002 80.75-124.155 80.75-127.954 80.75-131.825 79.388-134.961 76.665-137.362 73.939-139.765 69.961-140.964 64.729-140.964H-12.365C-19.319-140.964-24.319-139.424-27.365-136.341-30.413-133.26-31.935-128.276-31.935-121.395V0C-31.935 6.452-30.483 11.29-27.58 14.516-24.677 17.742-20.86 19.354-16.129 19.354-11.327 19.354-7.438 17.758-4.462 14.57-1.489 11.379 0 6.522 0 0" fill="#a53860"/>
<path transform="matrix(1,0,0,-1,619.9581,267.2345)" d="M0 0V124.19C0 130.642 1.468 135.48 4.409 138.706 7.347 141.932 11.146 143.545 15.806 143.545 20.608 143.545 24.497 141.949 27.473 138.76 30.446 135.57 31.935 130.712 31.935 124.19V0C31.935-6.524 30.446-11.398 27.473-14.624 24.497-17.849 20.608-19.462 15.806-19.462 11.218-19.462 7.436-17.831 4.462-14.57 1.487-11.309 0-6.452 0 0" fill="#a53860"/>
<path transform="matrix(1,0,0,-1,741.0309,150.35559)" d="M0 0H-21.505V-48.171H0C7.526-48.171 13.816-47.383 18.87-45.806 23.924-44.229 27.776-41.649 30.429-38.063 33.08-34.48 34.407-29.784 34.407-23.978 34.407-17.026 32.364-11.362 28.278-6.989 23.69-2.331 14.264 0 0 0M7.741-72.256H-21.505V-116.879C-21.505-123.26-23.011-128.099-26.021-131.395-29.032-134.691-32.832-136.341-37.419-136.341-42.222-136.341-46.093-134.709-49.032-131.449-51.972-128.187-53.44-123.403-53.44-117.094V4.408C-53.44 11.433-51.827 16.451-48.602 19.462-45.376 22.473-40.251 23.978-33.226 23.978H7.741C19.854 23.978 29.174 23.045 35.698 21.182 42.148 19.39 47.723 16.414 52.418 12.258 57.111 8.1 60.678 3.011 63.117-3.011 65.553-9.032 66.771-15.806 66.771-23.333 66.771-39.391 61.826-51.558 51.934-59.837 42.041-68.117 27.311-72.256 7.741-72.256" fill="#a53860"/>
<path transform="matrix(1,0,0,-1,938.3375,151.00061)" d="M0 0H-71.934V-38.709H-5.698C-.825-38.709 2.813-39.803 5.215-41.988 7.616-44.176 8.817-47.061 8.817-50.644 8.817-54.229 7.635-57.149 5.269-59.407 2.903-61.666-.753-62.794-5.698-62.794H-71.934V-107.632H2.474C7.49-107.632 11.271-108.798 13.817-111.126 16.36-113.457 17.634-116.557 17.634-120.427 17.634-124.156 16.36-127.185 13.817-129.513 11.271-131.844 7.49-133.008 2.474-133.008H-84.299C-91.253-133.008-96.253-131.467-99.299-128.384-102.347-125.303-103.868-120.32-103.868-113.438V5.053C-103.868 9.64-103.188 13.387-101.825 16.29-100.465 19.193-98.331 21.307-95.428 22.634-92.524 23.959-88.815 24.623-84.299 24.623H0C5.089 24.623 8.871 23.494 11.344 21.236 13.817 18.978 15.054 16.021 15.054 12.365 15.054 8.637 13.817 5.645 11.344 3.387 8.871 1.129 5.089 0 0 0" fill="#a53860"/>
<path transform="matrix(1,0,0,-1,1042.528,150.35559)" d="M0 0H-29.461V-43.333H-.859C6.81-43.333 13.262-42.67 18.495-41.343 23.727-40.018 27.724-37.76 30.483-34.569 33.242-31.38 34.623-26.989 34.623-21.397 34.623-17.026 33.511-13.172 31.29-9.838 29.067-6.505 25.984-4.016 22.043-2.366 18.314-.79 10.968 0 0 0M-18.278-66.235H-29.461V-116.879C-29.461-123.545-30.932-128.457-33.87-131.61-36.81-134.763-40.644-136.341-45.375-136.341-50.466-136.341-54.407-134.691-57.202-131.395-59.998-128.099-61.396-123.26-61.396-116.879V4.408C-61.396 11.29-59.855 16.271-56.772 19.354-53.691 22.436-48.708 23.978-41.826 23.978H10.107C17.275 23.978 23.404 23.672 28.494 23.064 33.583 22.454 38.172 21.217 42.258 19.354 47.204 17.274 51.575 14.301 55.376 10.43 59.174 6.559 62.059 2.06 64.031-3.064 66.002-8.19 66.988-13.621 66.988-19.354 66.988-31.111 63.672-40.501 57.042-47.526 50.411-54.552 40.357-59.533 26.882-62.472 32.543-65.482 37.957-69.928 43.118-75.805 48.279-81.683 52.884-87.938 56.935-94.568 60.983-101.199 64.139-107.185 66.396-112.524 68.654-117.865 69.784-121.54 69.784-123.545 69.784-125.625 69.12-127.685 67.795-129.728 66.468-131.771 64.658-133.384 62.364-134.567 60.069-135.75 57.419-136.341 54.408-136.341 50.822-136.341 47.812-135.498 45.376-133.814 42.938-132.131 40.841-129.997 39.086-127.417 37.328-124.836 34.946-121.037 31.936-116.019L19.14-94.729C14.552-86.917 10.447-80.966 6.828-76.88 3.208-72.794-.467-69.999-4.193-68.493-7.921-66.988-12.617-66.235-18.278-66.235" fill="#a53860"/>
</g>
</g>
</svg>
